<svg width="16" height="16" viewBox="0 0 16 16" fill="none" xmlns="http://www.w3.org/2000/svg">
                        <path d="M7.99979 0C3.57893 0 0.000244141 3.57867 0.000244141 7.99954C0.000244141 11.2879 2.26868 14.1088 5.43112 15.3189C5.83225 15.4066 6.06233 15.1154 6.06233 14.9148C6.06233 14.7025 6.05021 14.223 6.03733 13.6224C3.93062 14.1786 3.13941 13.5374 2.95549 13.3452C2.8508 13.2191 2.55106 12.6922 2.94336 12.4879C3.8183 11.9714 4.8288 10.788 4.8288 9.60919C4.8288 8.31441 3.95892 7.45903 3.47929 7.14584C3.37507 6.45427 3.08348 6.0001 2.63192 5.79747C2.35348 5.65828 1.92746 5.21691 2.63192 5.05245C3.25823 4.90095 3.77738 5.37476 3.94566 5.53623C4.31643 5.853 4.83389 6.39964 4.99628 7.03745C5.15512 7.66797 5.66362 8.31511 6.45159 8.31511C7.04995 8.31511 7.49078 7.88471 7.67454 7.63868C7.96086 7.22244 8.52413 6.9834 8.98167 6.9834C9.67114 6.9834 10.1706 7.63868 10.1706 8.40624C10.1706 9.10813 9.65389 9.75643 8.85104 9.96418C8.33701 10.0854 8.19224 10.438 8.1264 10.6935C7.97167 11.2759 7.54216 11.7581 6.87486 11.7581C6.39504 11.7581 6.06233 11.5281 6.06233 11.1387C6.06233 11.0371 6.14487 10.5802 6.33188 10.2501C6.5375 9.88107 6.81593 9.60919 7.16384 9.60919C7.60118 9.60919 7.91789 10.1352 7.91789 10.6256C7.91789 11.1205 7.59335 11.7581 6.87486 11.955C6.36082 12.0787 5.76433 12.3932 6.01225 12.866C6.14971 13.1091 6.62315 13.7304 7.29215 13.5894C7.59335 13.5254 8.34957 13.1565 8.97568 12.4879C9.36626 13.1937 10.3382 13.5254 11.081 13.5254C13.1391 13.5254 15.3323 12.5626 15.3323 9.60919C15.3323 5.89895 11.7535 2.85834 7.99979 2.85834V0Z" fill="white"/>
                    </svg>